<svg width="454" height="334" viewBox="0 0 454 334" fill="none" xmlns="http://www.w3.org/2000/svg">
<mask id="mask0_2519_4351" style="mask-type:luminance" maskUnits="userSpaceOnUse" x="0" y="163" width="73" height="166">
<path d="M0 163.861H72.0225V328.441H0V163.861Z" fill="white"/>
</mask>
<g mask="url(#mask0_2519_4351)">
<path d="M16.0147 234.221C12.2519 232.216 6.57932 232.576 3.8754 236.509C0.0369737 242.106 4.3103 252.505 13.3864 255.644C15.4096 256.344 17.5841 256.703 18.3782 258.707C19.5127 261.676 16.979 266.308 18.624 272.7C19.4182 275.668 21.0821 278.126 23.2566 279.79C25.2609 281.265 26.5845 281.435 27.7947 283.723H18.4539C17.9244 283.723 17.5841 284.064 17.5841 284.593V291.665C17.5841 292.194 17.9244 292.553 18.4539 292.553H20.3825L24.9206 327.44C25.0151 327.875 25.3555 328.215 25.7904 328.215H53.983C54.4368 328.215 54.7771 327.875 54.8717 327.44L59.4097 292.553H61.8489C62.3783 292.553 62.7187 292.194 62.7187 291.665V284.593C62.7187 284.064 62.3783 283.723 61.8489 283.723H49.7096C52.3379 281.189 55.6469 280.49 58.7857 278.561C61.414 276.992 64.1179 274.004 63.5885 270.506C63.4183 269.372 62.9834 268.407 62.8132 267.462C62.454 265.798 62.9834 263.964 64.2125 262.3C65.4226 260.73 67.1811 259.501 68.0509 257.478C69.7149 253.904 68.2211 248.913 65.1579 246.209C61.5842 242.975 56.0062 242.711 53.1132 239.383C49.1991 234.92 51.6383 226.714 47.365 221.892C45.8712 220.247 43.6022 219.094 41.3332 219.359C45.1716 209.488 45.701 208.43 45.7767 206.52C45.7767 205.555 45.6065 204.591 45.1716 203.891C44.3964 202.757 43.0728 202.398 41.8626 202.757C40.7281 203.097 39.6692 204.062 38.7994 205.026C40.8037 200.299 42.7324 195.402 44.3018 190.429C44.7367 189.105 45.1716 187.706 45.1716 186.307C45.0771 184.907 44.472 183.338 43.432 182.903C41.5979 182.109 39.9339 184.472 38.894 186.496C40.1041 180.899 40.2932 174.943 39.2343 169.27C39.0641 168.476 38.894 167.606 38.4591 167.001C37.7595 166.112 36.5304 166.037 35.5661 166.472C33.9967 167.171 32.8622 169.005 32.3327 171.01C31.1982 175.472 32.692 184.208 33.8265 188.67C32.5974 186.76 31.1226 184.832 29.1939 184.302C27.2841 183.773 24.9206 185.172 24.6559 187.536C24.5613 188.765 25.0151 189.994 25.45 191.128C28.0594 197.689 30.423 201.433 31.6331 203.627C32.1625 204.686 32.8622 206.955 33.6563 207.654C31.2927 205.366 25.0908 199.164 22.2923 203.986C21.5927 205.121 21.5927 206.766 21.9519 208.089C22.3868 209.923 22.7272 210.264 31.8222 226.09C30.0637 224.445 28.2296 222.687 26.1496 221.647C24.1264 220.493 21.6872 220.058 19.5884 220.947C18.8131 221.193 18.4539 221.647 18.7186 222.951C20.288 231.517 25.6958 238.173 31.4629 243.316C28.4187 241.917 25.2609 240.971 22.0465 240.612C20.288 237.208 18.1891 235.374 16.0147 234.221ZM24.3911 278.296C22.557 276.897 21.0821 274.704 20.3825 272.17C18.7186 266.063 21.4225 261.676 20.0233 258.008C18.9833 255.209 16.355 254.774 14.0104 253.904C5.80407 251.106 2.30599 241.917 5.36918 237.473C7.44911 234.41 12.1762 234.145 15.2205 235.809C18.624 237.549 20.8931 241.217 22.2923 244.81C22.8217 246.114 23.4268 247.513 24.6559 248.308C26.5845 249.537 28.6645 248.402 31.8222 249.972C28.5888 254.434 30.1582 260.371 30.1582 260.277C31.8222 266.838 34.3559 269.031 33.2971 273.399C32.5974 276.198 30.6877 279.261 32.2571 283.629H29.7233C28.2296 280.131 26.49 279.79 24.3911 278.296ZM53.2077 326.305H26.49L22.4814 294.993H57.3109L53.2077 326.305ZM60.9791 290.625C11.5523 290.625 31.1982 290.625 19.3237 290.625V285.293C32.5218 285.293 47.6108 285.293 60.9791 285.293V290.625ZM46.2305 222.951C50.0689 227.243 47.6108 235.374 51.9787 240.442C56.4411 245.604 65.4226 244.015 66.9164 252.505C67.7862 257.232 64.9121 258.443 62.8889 261.165C61.414 263.17 60.8089 265.533 61.1493 267.632C61.3195 268.596 61.7544 269.731 61.9435 270.601C62.2838 273.229 60.1093 275.593 57.9159 276.992C54.4368 279.166 50.5038 279.79 47.365 283.629H42.6379C53.2077 266.498 46.5708 244.204 45.4363 227.054C45.4363 226.544 45.0014 226.185 44.472 226.279C43.9425 226.279 43.6022 226.714 43.6967 227.243C44.8312 244.375 51.3736 266.498 41.0684 283.024C40.8983 283.288 40.8983 283.534 40.9739 283.723H34.3559C32.1625 278.996 35.1312 276.292 35.4904 272.094C35.7362 267.802 32.3327 263.775 31.7276 258.443C31.2928 254.604 32.5218 251.635 34.2614 250.142C35.4904 249.007 37.3246 248.213 38.27 246.473C40.7281 242.106 36.8708 239.572 37.5704 228.283C37.7595 225.485 38.6292 221.892 41.4277 221.287C43.0728 220.588 45.0014 221.647 46.2305 222.951Z" fill="black"/>
</g>
<path d="M19.593 249.1C19.2526 248.74 18.7232 248.646 18.3829 249.005C18.0236 249.345 17.929 249.875 18.2883 250.234C19.7632 251.974 22.8264 256.436 24.0554 258.365C26.9295 263.262 28.6691 268.935 28.9338 274.626C28.9338 275.061 29.3687 275.496 29.8036 275.496C30.333 275.496 30.6923 275.061 30.6923 274.626C30.4276 268.594 28.6691 262.733 25.5303 257.571C24.3201 255.377 21.1624 250.934 19.593 249.1Z" fill="black"/>
<mask id="mask1_2519_4351" style="mask-type:luminance" maskUnits="userSpaceOnUse" x="57" y="0" width="397" height="334">
<path d="M57.4932 0H453.797V334H57.4932V0Z" fill="white"/>
</mask>
<g mask="url(#mask1_2519_4351)">
<path d="M103.939 152.117C105.584 150.018 106.208 148.108 105.773 146.444C104.884 143.211 100.346 141.547 96.243 143.117C93.7092 139.354 89.4359 138.484 86.4673 140.318C84.8979 141.282 84.0281 142.852 83.1583 144.346C82.799 144.875 82.194 146.52 79.49 148.184C77.8261 149.243 76.8618 150.812 76.6916 152.646C76.3512 158.149 82.194 159.208 75.4625 163.5C74.2524 164.275 72.9288 165.145 72.059 166.544C70.9245 168.397 71.0947 170.477 71.3594 172.065C69.4496 174.24 67.8802 176.339 65.857 180.272C62.7182 186.398 58.3503 200.22 58.4449 207.387C58.4449 208.521 58.4449 209.826 59.0499 210.79C60.8084 213.513 65.7814 213.513 69.0147 212.983C69.2794 233.008 69.1849 230.549 69.1849 230.814C68.8256 230.984 68.6555 231.249 68.75 231.608C68.75 231.684 69.79 256.171 69.9602 261.333C70.3194 269.369 69.9602 270.503 67.4453 280.733C64.9116 291.057 62.1888 301.816 61.508 312.65C61.508 313.085 61.7539 313.444 62.1888 313.52C62.548 313.615 62.8884 313.709 63.2476 313.709C62.8884 316.678 62.9829 316.772 63.0775 321.14C61.508 322.369 61.0542 323.674 60.6193 325.678C60.279 327.172 60.0143 328.571 60.1845 330.046C60.1845 330.311 60.3735 330.5 60.5437 330.67C60.8841 330.935 61.319 330.84 61.4135 330.84C85.7677 330.84 83.2339 330.84 83.5932 330.84C84.2928 330.84 84.8033 330.84 85.3328 330.405L105.773 330.311C106.548 330.311 108.212 330.746 109.082 329.441C109.517 328.741 109.611 327.777 109.252 326.813C108.987 325.943 108.382 325.338 107.683 324.808C104.449 322.18 100.705 320.176 96.6022 319.817V317.642C97.472 317.642 98.2473 317.642 98.8713 317.283C99.5709 316.848 99.8356 316.073 100.006 315.543C101.31 311.516 103.504 301.022 104.279 296.918C108.647 274.531 110.821 250.744 107.683 228.28C110.481 225.142 111.086 220.585 111.256 216.387C111.351 213.154 111.351 210.015 111.086 206.952C113.544 208.351 117.553 209.826 120.257 209.126V230.02H114.414C113.885 230.02 113.544 230.379 113.544 230.909V244.901C113.544 245.412 113.885 245.771 114.414 245.771H116.948V325.414C116.948 325.943 117.288 326.302 117.818 326.302H132.566L131.961 333.034C131.867 333.544 132.302 333.998 132.831 333.998H138.239C138.674 333.998 139.033 333.639 139.109 333.204L139.808 326.302H164.616L165.316 333.204C165.316 333.639 165.751 333.998 166.186 333.998H171.593C172.123 333.998 172.558 333.544 172.463 333.034L171.858 326.302H184.073V328.401C184.073 328.912 184.432 329.271 184.943 329.271C195.872 329.271 284.666 329.271 300.02 329.271C300.549 329.271 300.89 328.912 300.89 328.401V326.302H309.72L309.096 333.034C309.02 333.544 309.455 333.998 309.985 333.998H315.393C315.828 333.998 316.168 333.639 316.262 333.204L316.962 326.302H341.751L342.451 333.204C342.451 333.639 342.886 333.998 343.321 333.998H348.747C349.258 333.998 349.693 333.544 349.617 333.034L349.012 326.302H354.76C353.361 327.437 353.55 328.647 354.42 329.346C359.223 332.769 377.034 330.746 379.738 330.746C381.138 330.746 382.348 330.67 382.272 329.176C382.272 328.212 382.007 327.342 381.913 326.472C381.837 325.848 381.837 325.243 381.648 324.638C381.213 322.445 380.268 319.212 380.079 318.947C380.343 316.848 380.514 314.749 380.514 312.65C381.743 312.575 382.877 312.575 384.106 312.48C384.541 312.48 384.806 312.14 384.881 311.78C387.34 298.847 389.854 285.46 391.443 271.997C392.918 283.985 394.922 295.954 397.626 307.753C398.25 310.646 399.384 311.175 401.294 311.251C402.618 311.346 403.998 311.346 405.322 311.251C405.662 313.879 406.097 316.073 406.191 318.247C405.492 318.947 405.132 319.817 404.887 320.611C403.828 323.674 403.317 327.002 403.563 330.405C403.658 331.805 404.357 332.41 405.756 332.41C410.635 332.599 414.568 332.674 417.272 332.674C418.936 332.674 419.976 332.239 419.976 330.576C419.976 327.077 418.841 325.678 417.366 321.67C416.931 320.611 416.062 318.342 415.097 317.642C414.927 315.108 414.738 312.82 414.568 310.741C414.927 310.646 415.267 310.287 415.267 309.946C415.362 306.618 415.438 303.045 415.532 299.282C417.196 302.251 420.24 302.591 422.434 304.085H416.307C415.797 304.085 415.438 304.444 415.438 304.954V309.077C415.438 309.587 415.797 309.946 416.307 309.946H417.461L420.07 329.97C420.165 330.405 420.505 330.746 420.94 330.746H437.353C437.787 330.746 438.147 330.405 438.222 329.97L440.851 309.946H441.645C442.155 309.946 442.515 309.587 442.515 309.077V304.954C442.515 304.444 442.155 304.085 441.645 304.085H436.842C437.353 303.385 438.222 303.045 439.016 302.421C441.191 300.851 442.685 297.713 442.08 293.061C441.815 291.492 441.645 290.187 442.325 289.487C442.855 288.958 443.819 288.788 444.689 288.428C452.46 285.819 453.765 275.23 446.523 274.625C447.317 272.961 446.183 271.657 444.613 271.562C443.725 271.562 442.949 271.827 442.155 272.091C439.016 273.131 435.783 274.266 432.909 275.854C437.712 272.167 441.985 267.894 445.748 263.167C446.429 262.297 447.053 260.803 446.183 260.103C445.748 259.763 445.124 259.763 444.613 259.839C441.456 260.103 438.411 260.803 435.518 261.862C440.756 258.005 445.748 253.107 447.223 246.735C447.393 245.846 447.223 245.506 446.429 245.241C444.519 244.636 442.325 244.977 440.416 245.771C438.487 246.546 436.918 247.87 435.254 249.099C443.555 237.281 443.819 237.111 444.349 235.712C444.689 234.672 444.613 233.518 443.989 232.648C441.38 229.075 435.783 233.707 433.609 235.371C434.308 234.842 434.913 233.083 435.443 232.384C436.048 231.514 436.653 230.644 437.277 229.774C438.676 227.675 439.981 225.387 441.115 223.118C441.55 222.343 441.891 221.379 441.815 220.49C441.645 218.656 439.451 217.692 437.617 218.051C435.878 218.486 434.478 219.885 433.42 221.284C434.478 217.956 435.783 211.49 434.743 208.162C433.609 204.683 430.451 203.888 429.146 205.193C428.711 205.628 428.541 206.252 428.447 206.857C427.501 211.055 427.671 215.517 428.806 219.62C427.842 218.146 426.348 216.387 424.703 216.916C423.644 217.257 423.133 218.391 423.039 219.45C423.039 220.49 423.379 221.549 423.833 222.513C425.308 226.182 427.047 229.85 428.882 233.348C428.106 232.573 427.142 231.949 426.102 231.608C424.268 231.173 422.434 232.119 422.509 234.407C422.604 235.882 422.869 236.241 427.407 245.771C426.102 244.977 424.438 244.447 422.944 245.071C417.707 247.51 425.213 260.274 427.142 263.337C425.308 262.732 423.474 262.373 421.64 262.127C420.6 261.938 420.165 262.297 420.07 263.431C419.9 266.665 420.94 269.898 422.869 272.526C422.869 272.697 422.774 272.867 422.774 273.056C421.904 272.602 420.864 272.432 419.9 272.526C418.331 272.697 418.142 273.755 418.765 275.155C419.276 276.459 419.9 277.688 420.429 278.899C419.2 279.787 417.272 280.298 415.702 281.092C415.702 273.755 415.627 270.068 415.173 227.146C416.667 221.644 415.173 216.482 414.662 208.956C426.348 208.861 432.814 200.22 421.904 181.595C414.927 169.778 410.9 167.603 404.357 163.576C403.563 163.141 402.164 161.912 400.783 161.307C400.349 161.136 399.989 160.947 399.46 160.947C398.949 158.508 398.685 155.974 398.685 153.441C399.29 153.516 402.523 153.875 403.223 153.875C403.998 153.875 406.021 153.611 406.721 152.382C407.591 150.982 406.721 149.413 405.586 148.543C404.452 147.673 403.128 147.144 401.823 146.709C403.223 144.686 404.357 142.341 404.792 139.618C406.267 130.089 397.115 127.29 391.613 130.958C389.155 132.622 387.075 135.156 385.241 138.578C383.671 137.444 382.348 136.215 380.608 136.045C379.644 135.95 379.039 136.215 378.604 136.744C377.81 137.879 378.679 139.543 379.303 140.753C379.738 141.642 380.173 142.417 380.778 143.287C379.908 147.749 378.074 148.279 380.608 151.342C380.778 151.606 380.948 151.777 381.138 152.041C382.537 154.046 382.007 157.903 384.447 159.302C385.581 159.907 387.15 159.737 388.379 159.378C388.115 160.701 387.774 161.477 387.34 162.271C384.806 163.576 377.81 166.639 376.77 167.773C376.505 168.132 376.24 168.473 376.07 169.267C375.711 169.607 376.845 168.038 372.667 174.864C367.939 182.56 367.599 183.959 365.425 186.058C365.065 186.398 365.065 186.398 364.63 186.304C363.061 186.228 361.492 185.963 359.922 185.604C359.922 84.2732 359.998 88.3008 359.828 87.9415C359.998 86.807 360.092 85.8426 360.092 84.7081C360.092 72.2096 360.092 73.0038 359.998 72.8147L345.344 35.754C348.048 35.754 350.752 35.13 353.285 34.3548C353.985 34.09 354.76 33.8253 355.29 33.2959C356.519 32.2559 356.424 30.6865 354.855 29.9869C352.926 29.0982 348.218 29.8924 346.289 30.2327C344.285 30.592 342.016 30.9323 340.106 31.7265C342.375 28.1339 343.944 25.6001 345.684 23.0664C349.012 23.6904 352.491 23.3311 355.554 22.0264C356.594 21.5915 357.559 21.0621 358.599 20.5326C360.868 19.3036 362.267 18.4338 364.29 15.9946C360.092 15.4652 355.989 16.5997 352.056 18.0934C350.657 18.604 349.258 19.1334 347.953 19.9276C349.693 17.4695 351.527 15.1059 353.626 12.8369C358.523 11.4376 363.496 10.133 367.07 7.16432C367.769 6.54034 368.469 5.84072 368.828 4.97093C369.868 2.53173 367.939 -0.00200886 363.931 1.47285C360.263 2.77754 357.464 5.67054 355.195 8.73372C351.886 11.7969 349.012 15.295 346.478 18.9632C346.913 16.2593 346.478 11.7969 345.949 8.82826C345.684 7.33449 344.89 3.93096 343.415 3.74187C342.81 3.66624 342.281 4.10114 342.016 4.63057C341.751 5.14111 341.751 5.76509 341.751 6.37016C341.751 9.07408 342.375 11.7024 342.98 14.3306C343.585 16.6942 344.115 19.0578 344.814 21.4024C342.98 24.1253 341.316 26.8292 339.652 29.3629C340.541 22.3668 337.572 15.0303 335.039 12.6667C334.169 11.8725 333.034 11.2675 331.9 11.2675C331.2 11.2675 330.501 11.4376 330.066 11.9671C329.706 12.3263 329.612 12.8369 329.536 13.3663C329.271 15.9001 330.576 18.2636 331.9 20.457C335.814 27.4342 336.608 29.7978 338.007 32.1614L336.173 35.13C328.402 35.13 294.083 35.13 285.536 35.13H225.369C207.822 35.13 157.355 35.13 139.638 35.13L137.804 32.1614C139.298 29.6276 139.808 27.7935 143.911 20.457C145.14 18.2636 146.54 15.8055 146.275 13.3663C146.18 12.8369 146.105 12.402 145.745 11.9671C145.311 11.4376 144.611 11.2675 143.911 11.2675C142.701 11.2675 141.567 11.8725 140.773 12.6667C137.974 15.295 135.27 22.726 136.14 29.3629C134.495 26.7346 132.831 24.1253 130.997 21.4024C131.602 19.0578 132.226 16.6942 132.831 14.3306C133.531 11.7024 134.06 9.07408 134.06 6.37016C134.06 5.76509 134.06 5.14111 133.795 4.63057C133.531 4.10114 133.001 3.66624 132.396 3.74187C131.696 3.83642 131.262 4.44149 130.997 5.06547C129.427 8.37446 128.822 15.7299 129.333 18.8687C126.724 15.295 123.925 11.7024 120.616 8.63918C118.252 5.576 115.549 2.70191 111.88 1.39722C111.086 1.1325 110.216 0.86778 109.347 0.943414C107.248 1.1325 106.208 2.96663 107.078 4.87639C107.418 5.76509 108.118 6.4647 108.817 7.06977C112.391 10.0384 117.383 11.362 122.261 12.7612C124.265 14.9357 126.194 17.3938 127.934 19.833C126.629 19.1334 125.23 18.5283 123.831 17.9989C119.916 16.5997 115.719 15.4652 111.616 15.9C113.62 18.2636 115.019 19.2279 117.288 20.457C118.252 20.9675 119.292 21.497 120.351 21.9319C123.396 23.2555 126.894 23.5958 130.203 22.9907C131.961 25.5245 133.606 28.2284 135.8 31.6319C133.871 30.8567 131.602 30.4974 129.598 30.1571C127.593 29.7978 122.885 29.0982 121.051 29.8923C119.463 30.592 119.463 32.1614 120.616 33.2202C121.221 33.7308 121.921 33.9955 122.62 34.2602C128.633 36.2834 131.602 35.754 134.76 35.2246C134.665 35.3947 120.087 72.739 120.087 73.0038C120.087 73.4387 120.087 81.645 120.087 84.6325C120.087 86.3721 120.351 88.036 120.862 89.7V189.802C111.786 181.16 108.118 172.935 107.153 171.441C106.378 169.967 105.678 168.567 104.185 167.698C106.548 164.54 106.643 160.701 104.979 157.808C104.185 156.409 102.974 155.18 103.05 153.875C102.71 153.611 103.409 152.817 103.939 152.117ZM85.7677 153.611C86.1269 152.911 86.8265 153.006 87.2614 153.441C87.772 154.046 88.8308 153.611 88.7363 152.741C88.6607 152.212 89.001 151.512 89.3414 150.907C89.7952 150.113 90.4003 149.413 91.0999 148.884C91.7049 148.449 92.4991 148.449 93.3689 148.449C94.5034 148.449 95.5434 148.619 96.5077 149.073C97.2073 149.319 97.9069 149.583 98.2473 150.018C98.8713 150.718 99.2116 152.646 99.3062 153.611C99.4763 155.804 99.2116 157.638 98.9469 159.643C98.8713 160.512 98.512 161.741 97.7368 162.346C96.6022 163.311 94.7681 162.97 93.3689 162.346C91.8751 161.571 90.665 160.342 89.6061 159.037C89.001 158.243 88.396 157.544 88.396 156.768C88.396 156.315 88.0367 155.974 87.6963 155.974C86.0324 155.804 85.3328 154.481 85.7677 153.611ZM84.7277 167.244C86.0324 165.41 87.0724 163.235 87.3371 158.943C87.6018 159.378 87.9611 159.907 88.3014 160.248C90.041 162.346 91.9697 164.2 94.5979 164.71C94.1441 164.975 94.0685 165.504 94.3332 165.939C94.8438 166.733 95.6379 167.433 96.5077 167.868C97.9069 171.101 98.8713 176.698 97.472 179.761C96.9426 180.896 95.9026 181.766 94.9383 181.936C93.7092 182.106 92.1398 181.595 90.7406 180.366C88.2069 178.097 86.8265 176.528 85.3328 171.631C84.9924 170.042 84.6332 168.643 84.7277 167.244ZM71.7943 268.404C72.059 265.266 71.9834 264.66 70.5841 233.178C78.261 236.411 86.3916 237.205 93.1987 236.941C92.7638 244.807 91.27 268.234 89.1712 276.289C87.9611 280.827 84.463 289.752 75.5571 313.785C71.4539 313.444 67.4453 312.82 63.4178 312.045C64.6469 294.725 71.0947 276.724 71.7943 268.404ZM94.9383 320.441C94.8438 320.516 94.7681 320.611 94.7681 320.705C93.3689 322.71 90.4003 322.974 88.7363 320.97V317.377C90.8352 317.642 92.8395 317.718 94.9383 317.718V320.441ZM86.9967 320.705C85.3328 322.01 84.8979 323.409 84.463 325.773C81.0595 323.069 77.5614 320.781 73.0233 320.441C73.1179 318.871 73.3826 317.283 73.9877 315.373C74.2524 315.373 75.992 315.543 76.1621 315.543C76.5214 315.543 76.8618 315.279 76.9563 314.919C79.1308 308.982 75.7272 318.172 84.8979 293.42C85.2382 310.287 86.6375 312.82 85.2382 315.543C84.9924 316.073 85.3328 316.678 85.8622 316.848C86.2026 316.942 86.5618 316.942 86.9022 317.018V320.705H86.9967ZM72.1535 315.184C71.5485 317.207 71.3594 318.871 71.1892 320.781C71.019 320.97 70.9245 321.046 70.8489 321.216C69.4496 323.239 66.481 323.504 64.817 321.481C64.817 316.848 64.7225 316.942 64.9872 314.22C67.4453 314.579 69.79 314.919 72.1535 315.184ZM102.615 296.654C102.445 297.713 98.9469 315.279 98.0015 315.884C97.8124 315.978 97.472 315.978 97.3019 315.978C93.974 316.073 90.5704 315.884 87.2614 315.373C87.772 313.615 87.6963 311.686 87.5262 310.041C86.9022 303.045 86.6375 295.954 86.6375 288.958C88.4716 284.061 89.9654 280.222 90.9297 276.724C93.1042 268.404 94.5034 245.412 95.0328 236.846C100.441 236.581 104.714 235.712 106.907 235.182C108.477 253.467 107.153 273.566 102.615 296.654ZM109.611 216.387C109.422 220.755 108.742 225.577 105.319 228.375C102.105 230.984 97.7368 232.213 93.4634 232.743C86.0324 233.707 78.261 233.272 71.019 231.344C71.019 231.249 71.019 231.779 70.9245 220.415C74.952 212.624 82.0994 207.292 86.4673 204.588C88.2069 203.983 90.4003 204.059 92.31 203.718C93.5391 203.529 96.1673 202.924 96.3375 201.695C97.472 201.185 97.7368 199.861 97.2073 198.897C97.8124 198.292 97.9069 197.422 97.5666 196.628C98.0771 196.023 98.1717 194.964 97.3019 194.359C96.9426 194.094 96.6022 193.924 96.243 193.659C97.0371 192.959 98.0771 191.56 97.7368 190.501C97.6422 190.161 97.3775 189.991 97.0371 189.802C96.6779 189.631 96.3375 189.726 96.0728 189.726C88.5661 191.295 87.4316 192.09 84.8033 194.359C83.2339 195.758 82.799 196.023 80.2653 197.233C78.4312 198.121 77.3912 198.821 74.328 199.596C75.7273 195.323 77.7316 188.667 78.4312 184.205C78.5257 183.77 78.1664 183.259 77.7316 183.165C77.2967 183.07 76.7861 183.429 76.6916 183.864C75.8974 188.592 73.6284 195.928 72.1535 200.485C71.8888 201.09 72.4939 201.79 73.1935 201.619C75.8218 201.09 77.9963 200.296 79.7548 199.426C81.3242 198.632 83.0637 197.857 84.6332 196.722C88.1312 194.094 87.3371 193.394 95.6379 191.466C95.203 192.09 94.5979 192.6 93.974 192.865C93.2743 193.224 93.3689 194.264 94.1441 194.529C94.7681 194.699 95.2787 194.964 95.8081 195.323C94.5034 195.399 94.6736 196.987 95.7325 197.063C95.9026 197.063 95.9783 197.233 95.9783 197.422C95.9783 197.592 95.8081 197.686 95.6379 197.686C95.203 197.686 94.7681 197.932 94.6736 198.462C94.5979 198.897 94.9383 199.332 95.3732 199.426C95.4677 199.426 95.6379 199.596 95.6379 199.785C95.6379 199.956 95.3732 200.031 95.1085 200.031C94.5979 200.126 94.2387 200.561 94.3332 201.09C91.8751 202.395 87.6963 201.525 84.6332 203.189C80.8893 205.193 77.6559 207.916 73.8175 209.561C69.7143 211.32 65.9516 211.66 63.588 211.225C62.548 211.055 61.0542 210.714 60.4492 209.656C60.1088 209.221 60.1088 208.162 60.1088 207.462C60.1088 207.027 60.0143 206.252 60.279 203.888C61.1488 196.722 64.7225 185.963 67.2562 180.896C68.8256 177.927 70.5841 175.204 72.8532 172.765C73.3826 172.141 73.8931 171.706 74.5927 171.631C74.8575 171.631 74.6873 171.631 76.8618 170.666C78.3555 169.967 80.7947 168.832 82.7234 167.868C82.799 169.172 83.0637 170.477 83.4986 171.801C85.0681 177.038 86.6375 178.967 89.4359 181.406C93.1987 184.659 97.2073 183.864 98.9469 180.272C100.441 177.133 99.7411 171.801 98.6065 168.473C99.2116 168.643 100.346 168.908 100.535 168.908C100.535 168.908 100.611 169.172 100.705 169.172C103.674 175.469 103.504 174.505 107.342 186.058C108.288 188.932 108.382 193.394 105.414 196.098C104.979 196.457 105.073 197.157 105.584 197.497C106.813 198.292 107.853 199.596 108.477 201.355C109.687 204.928 109.687 212.719 109.611 216.387ZM146.275 173.105C146.369 172.935 146.445 172.765 146.445 172.5C146.615 171.706 146.275 171.177 145.84 171.007C146.01 170.572 146.18 170.137 146.369 169.702C146.804 168.208 145.745 167.433 144.535 167.868C144.346 166.809 143.136 166.374 142.077 167.338C140.508 168.738 139.203 170.402 137.634 171.441C137.728 170.836 137.898 170.231 137.804 169.532C137.728 167.698 135.705 166.733 134.4 169.002C131.791 173.465 130.902 172.5 130.392 177.927C130.297 179.326 130.127 180.536 128.728 182.465C128.369 182.9 127.934 183.335 127.499 183.864V99.7593C137.464 106.396 151.078 101.669 154.576 90.3051C156.845 97.5659 163.652 102.804 171.593 102.804C179.63 102.804 186.437 97.5659 188.611 90.3051C190.88 97.5659 197.706 102.804 205.648 102.804C213.684 102.804 220.491 97.5659 222.665 90.3051C224.934 97.5659 231.741 102.804 239.702 102.804C247.719 102.804 254.545 97.5659 256.72 90.3051C258.989 97.5659 265.796 102.804 273.737 102.804C281.773 102.804 288.58 97.5659 290.774 90.3051C293.043 97.5659 299.85 102.804 307.791 102.804C315.828 102.804 322.635 97.5659 324.828 90.3051C328.402 101.858 342.545 106.566 352.415 99.4V183.959C349.957 182.995 349.957 182.73 349.352 182.995C348.747 182.03 348.218 181.236 347.518 180.102V180.026C347.518 179.572 347.253 179.326 346.819 179.137C346.289 178.532 345.779 178.003 345.249 177.568C345.155 177.473 345.079 177.473 344.984 177.398V171.801C344.984 171.536 344.984 171.177 344.89 170.931C344.55 169.267 343.075 168.208 341.411 168.208H335.644C335.644 167.943 335.549 167.698 335.473 167.433C335.039 166.109 334.074 165.674 335.644 163.576C335.738 163.405 335.908 163.311 336.003 163.141C336.608 162.346 337.308 161.477 337.478 160.437C337.818 158.848 336.948 156.939 335.209 156.844C333.904 156.768 332.94 157.808 332.146 157.808C335.379 154.216 334.169 149.772 330.576 149.243C329.612 149.148 328.666 149.319 327.778 149.772C327.343 147.749 325.698 146.974 323.675 147.314C322.464 147.484 321.235 147.919 320.63 148.978C318.702 148.014 315.033 148.978 314.693 152.476C314.598 153.611 314.863 154.67 315.393 155.615C315.222 155.804 313.899 156.315 312.5 159.472C311.895 160.777 311.46 162.101 310.666 163.141C309.985 164.01 308.85 164.805 307.791 164.805C307.357 164.805 306.827 164.634 306.222 164.805C305.088 165.069 304.558 166.109 304.048 166.469C303.253 166.998 301.854 166.469 300.625 166.204C298.11 165.674 294.782 166.204 293.307 168.303H280.998C278.975 168.303 277.405 169.872 277.405 171.876V179.931C277.405 180.461 277.765 180.801 278.275 180.801H327.437C327.702 181.425 328.572 182.2 329.101 182.56C328.572 183.07 328.666 183.864 329.177 184.469C329.366 184.659 329.536 184.829 329.706 184.999C329.366 185.434 329.366 186.058 329.612 186.568C330.236 187.797 332.94 188.592 334.339 188.856C338.083 189.461 341.751 190.69 345.249 192.43C345.155 192.6 345.155 192.695 345.079 192.789H276.195V199.256H276.895V230.02H270.598V208.162H271.203C271.733 208.162 272.092 207.821 272.092 207.292V197.497C272.092 196.987 271.733 196.628 271.203 196.628H268.065C267.195 190.066 267.1 183.335 267.195 176.528C267.63 176.433 268.159 176.263 268.594 176.169C269.029 176.074 269.294 175.639 269.199 175.204C267.289 163.67 265.361 158.943 253.921 153.611H253.845L252.711 153.081C254.091 148.279 253.581 146.709 250.782 143.741C249.648 142.511 248.948 141.717 248.608 140.148C249.912 138.578 249.818 136.915 248.948 135.95C248.948 135.78 249.043 135.591 249.043 135.421C249.478 134.646 249.213 133.511 249.213 132.811V132.547C249.043 129.748 248.249 127.649 246.15 125.551C239.948 119.594 231.401 122.922 229.832 129.313C229.472 130.713 229.472 132.112 229.397 133.587C229.397 134.891 229.302 134.891 229.397 135.156C229.397 135.345 229.302 135.591 229.208 135.856C228.962 136.12 228.773 136.555 228.697 136.99C227.033 139.713 225.464 140.677 225.634 151.417C225.634 151.871 225.634 152.306 225.728 152.817C216.652 154.481 208.352 163.046 207.217 178.438C207.217 178.873 207.482 179.326 207.917 179.402H208.181C207.992 185.169 207.992 190.955 208.181 196.628H204.513C203.984 196.628 203.643 196.987 203.643 197.497V207.292C203.643 207.821 203.984 208.162 204.513 208.162H204.589V230.02H197.612V212.813H198.141C198.651 212.813 199.011 212.454 199.011 211.925V203.283C199.011 202.754 198.651 202.395 198.141 202.395H188.706C188.8 197.497 185.397 193.659 180.499 193.13C180.405 191.9 180.159 186.928 179.705 185.604C179.535 185.093 179.195 184.564 178.665 184.299C177.531 183.505 177.436 185.963 177.436 187.362C177.436 188.497 177.266 192.354 176.926 193.564C173.768 194.529 172.388 196.722 171.159 199.861C170.799 200.731 170.553 201.619 170.364 202.489H162.082C162.158 197.686 158.755 193.735 153.876 193.224C153.782 191.995 153.517 187.003 153.082 185.699C152.912 185.169 152.553 184.659 152.042 184.394C150.907 183.6 150.813 186.058 150.813 187.457C150.813 188.497 150.643 192.43 150.284 193.659C147.145 194.623 145.745 196.798 144.535 199.956C144.176 200.825 143.911 201.695 143.741 202.584H134.23C133.701 202.584 133.36 202.924 133.36 203.454V212.114C133.36 212.624 133.701 212.983 134.23 212.983H134.835V230.209H127.423V201.43C130.656 196.722 132.925 192.695 134.665 188.591C137.029 184.394 140.243 180.726 144.176 177.927C145.14 177.227 146.88 175.564 146.88 174.334C146.88 173.729 146.615 173.276 146.275 173.105ZM193.773 37.0587L187.911 72.6445H155.71L165.921 37.0587H193.773ZM314.523 37.0587L324.034 72.6445H291.814L286.311 37.0587H314.523ZM122.091 89.7756C120.956 86.1074 121.561 84.1976 121.391 74.403H153.517V85.0674C153.517 97.2256 140.167 104.902 129.503 98.8706C128.028 98.171 123.32 93.7275 122.091 89.7756ZM189.575 74.403H221.796V85.0674C221.796 93.8031 214.554 100.969 205.723 100.969C196.817 100.969 189.67 93.8031 189.67 85.0674C189.575 84.0085 189.575 89.076 189.575 74.403ZM257.854 74.403H290.074V85.0674C290.074 93.8031 282.832 100.969 274.002 100.969C265.096 100.969 257.949 93.8031 257.949 85.0674V74.403H257.854ZM326.133 75.8022V74.403H358.258C358.164 84.8972 358.523 86.2019 357.729 89.0004C355.989 95.902 349.617 100.969 342.11 100.969C333.204 100.969 326.038 93.8031 326.038 85.0674V75.8022H326.133ZM256.02 72.6445H223.724L225.993 37.0587H254.451L256.02 72.6445ZM377.375 170.836C377.469 170.666 377.639 170.477 377.639 170.137C377.639 170.042 377.639 170.042 377.639 169.967C377.734 169.607 377.81 169.343 378.074 169.097C378.679 168.473 384.182 165.845 384.976 165.504C378.509 184.129 374.141 204.494 371.797 226.182C371.608 226.087 371.437 226.011 371.362 225.917C371.173 218.146 371.437 210.45 372.137 202.754C372.307 202.489 372.307 202.225 372.232 201.884C373.196 191.125 375.011 180.631 377.375 170.836ZM399.12 163.046C399.12 163.046 399.195 163.046 399.46 163.046C399.895 174.505 399.195 185.604 398.42 194.964C397.72 195.058 397.021 195.058 396.321 195.058C395.886 195.058 395.451 195.399 395.451 196.023C391.083 194.964 390.119 194.359 381.648 196.363C380.003 196.722 379.908 198.897 383.312 199.861C383.047 200.22 382.877 200.561 382.707 200.92C382.177 201.96 382.612 202.754 383.407 203.094C383.407 203.983 383.917 204.758 384.711 205.023C384.617 206.063 385.505 207.122 386.716 207.122C387.85 208.786 393.277 206.328 395.886 205.628C395.981 206.252 395.981 206.592 397.285 207.027C396.586 213.948 395.716 223.648 395.357 230.549C392.218 230.474 390.649 230.379 390.478 230.379C385.146 229.944 378.509 229.51 373.536 227.146C375.9 204.683 380.514 183.6 387.245 164.445C387.245 164.445 387.245 164.445 387.34 164.445C388.115 165.599 389.419 166.903 390.819 167.244C392.483 167.603 394.411 167.244 396.151 166.204C397.285 165.504 398.42 163.311 399.12 163.046ZM397.021 230.644C397.456 223.043 398.25 215.423 398.949 207.821C403.998 210.261 410.03 210.62 413.698 217.786C413.963 220.49 414.133 223.118 413.698 225.652C413.528 226.541 413.263 227.486 413.093 227.846C412.734 228.64 412.469 228.715 411.599 228.886C407.156 230.02 402.164 230.644 397.021 230.644ZM386.716 203.794C386.451 203.454 385.94 203.283 385.581 203.529C385.411 203.624 385.052 203.529 385.146 203.189C385.146 203.094 385.241 203.019 385.241 203.019C386.11 202.489 385.505 200.995 384.371 201.525C384.711 200.995 385.052 200.485 385.581 200.126C386.205 199.596 385.846 198.556 385.052 198.556C384.276 198.556 383.577 198.386 382.972 198.027C390.478 196.287 390.743 196.798 395.546 197.932C395.621 199.956 395.716 201.96 395.792 204.059C392.823 204.853 390.119 206.158 388.209 206.063C388.115 205.552 387.585 205.288 387.075 205.458C386.886 205.552 386.545 205.552 386.451 205.458C386.375 205.363 386.451 205.118 386.545 205.023C386.886 204.683 386.98 204.153 386.716 203.794ZM369.528 226.276C368.904 247.51 368.469 268.593 368.204 288.958C368.128 296.559 368.034 304.444 369.263 312.215C369.339 312.915 370.227 313.01 370.133 312.915C370.303 312.915 370.473 312.915 370.662 312.915C370.662 314.484 370.662 316.073 370.662 317.642C366.635 319.571 363.836 320.875 361.227 322.275V245.771H361.662C362.191 245.771 362.532 245.412 362.532 244.901V230.909C362.532 230.379 362.191 230.02 361.662 230.02H359.828V201.355C361.397 201.96 362.891 202.584 364.46 203.094C366.465 203.794 368.299 204.229 370.303 203.624C369.603 211.225 369.433 218.751 369.528 226.276ZM352.661 230.02H345.684C345.684 223.213 345.684 246.811 345.684 199.161H346.913V194.793C348.917 196.023 350.827 197.063 352.661 198.121V230.02ZM278.634 200.126H343.944V230.02H335.473C335.814 229.68 336.079 229.15 336.079 228.545V225.747C336.079 224.953 335.644 224.253 335.039 223.913C337.043 218.845 333.204 213.589 327.608 213.154V208.162C327.608 207.651 327.267 207.292 326.738 207.292C326.208 207.292 325.868 207.651 325.868 208.162V213.154C320.025 213.683 316.262 219.28 318.531 224.348C318.191 224.688 317.926 225.217 317.926 225.841V228.64C317.926 229.15 318.191 229.68 318.531 230.115H305.957C306.317 229.774 306.562 229.245 306.562 228.64V225.841C306.562 225.047 306.127 224.348 305.522 223.988C305.882 223.118 306.052 222.249 306.052 221.284C306.052 217.087 302.554 213.589 298.11 213.248V208.256C298.11 207.727 297.751 207.387 297.222 207.387C296.711 207.387 296.352 207.727 296.352 208.256V213.248C291.908 213.683 288.316 217.087 288.316 221.284C288.316 222.419 288.58 223.478 289.015 224.348C288.675 224.688 288.41 225.217 288.41 225.841V228.64C288.41 229.15 288.675 229.68 289.015 230.115H278.729V200.126H278.634ZM326.738 214.912C331.805 214.912 335.209 219.545 333.28 223.648H320.101C319.76 222.854 319.571 222.078 319.571 221.19C319.666 217.786 322.805 214.912 326.738 214.912ZM297.146 214.912C301.079 214.912 304.293 217.786 304.293 221.284C304.293 222.154 304.123 222.948 303.783 223.742H290.585C290.244 222.948 290.074 222.154 290.074 221.284C290.074 217.786 293.213 214.912 297.146 214.912ZM346.214 190.69C338.972 187.098 334.944 187.268 332.58 186.398C333.469 186.228 333.715 184.999 332.94 184.564C333.81 184.299 333.904 183.07 333.034 182.73C331.975 182.295 331.011 181.671 330.141 180.896H330.671C330.935 181.066 331.276 181.16 331.54 181.331C331.975 181.595 332.58 181.406 332.845 180.971C333.11 180.536 333.034 179.931 332.58 179.667C332.24 179.402 331.975 179.232 331.711 178.967C334.169 179.761 336.608 180.896 339.406 180.801C339.917 180.801 340.352 180.366 340.352 179.837C340.352 178.097 338.877 176.868 338.518 175.904C339.047 176.169 339.747 176.774 342.186 178.003L342.715 178.267C343.075 178.438 343.51 178.627 343.85 178.873C344.02 178.967 344.209 179.062 344.379 179.232C346.214 180.536 347.178 182.995 348.653 184.904C347.953 186.928 347.178 188.856 346.214 190.69ZM341.675 170.042C342.545 170.042 343.245 170.666 343.415 171.441C343.415 171.631 343.51 171.706 343.51 171.876V176.528L343.15 176.339C343.15 176.339 343.15 176.339 343.075 176.339C342.016 175.828 340.976 175.204 340.012 174.599C338.348 173.465 337.383 174.07 336.948 174.505C336.249 175.299 336.343 176.339 336.873 177.303H332.505C331.276 176.868 329.877 176.339 329.101 177.303H279.164V171.971C279.164 170.931 279.939 170.137 280.998 170.137C283.702 170.042 301.779 170.042 341.675 170.042ZM317.302 156.768C318.002 156.504 318.966 156.409 319.666 156.939C320.46 157.638 321.5 160.248 324.733 158.414C325.868 157.808 328.042 155.974 329.877 157.203C330.671 157.714 330.406 158.243 331.011 158.943C331.635 159.643 332.845 159.737 333.98 159.208C334.849 158.773 335.379 158.338 335.814 158.848C336.608 159.907 335.644 161.042 334.849 162.101C331.975 165.769 333.81 166.998 334.169 168.208H304.653C305.352 167.943 305.693 167.603 306.222 167.074C306.392 166.903 306.657 166.469 307.016 166.469C307.262 166.374 307.621 166.469 308.056 166.544C309.796 166.639 311.46 165.599 312.5 164.2C313.464 162.97 313.993 161.477 314.598 160.172C315.033 158.848 315.922 157.279 317.302 156.768ZM296.276 168.303C296.352 168.303 296.352 168.303 296.446 168.208C298.886 167.244 300.814 168.038 301.949 168.303H296.276ZM205.477 206.422V198.386C208.446 198.386 215.253 198.386 218.127 198.386H224.594V206.422H205.477ZM210.015 179.667L219.697 181.16C219.262 186.058 219.432 182.635 218.392 190.331C218.127 192.43 217.863 194.529 217.428 196.628H209.921C209.751 191.031 209.751 185.358 210.015 179.667ZM234.275 142.776C233.935 142.341 233.5 141.812 233.33 141.282C232.97 139.713 231.93 140.148 230.872 138.843C230.267 138.049 230.361 137.179 230.531 137.085C230.796 136.99 231.231 137.614 231.401 137.69C231.571 137.879 231.836 137.955 232.006 137.955C232.441 137.955 232.8 137.69 232.876 137.255L233.235 135.685H245.374C245.374 135.95 245.374 136.215 245.28 136.48C245.185 137.255 246.15 137.69 246.774 137.179C247.019 136.915 247.379 136.82 247.549 136.82H247.643C247.814 136.915 247.984 137.255 247.908 137.614C247.908 137.69 247.908 138.314 246.774 139.278C246.414 139.543 246.074 139.713 245.885 139.713C245.545 139.713 245.11 139.883 245.015 140.242C244.24 142.247 243.37 143.986 241.441 144.78C240.401 145.215 237.603 145.215 236.109 144.251C235.334 144.081 234.71 143.381 234.275 142.776ZM235.334 146.085C236.374 146.709 237.679 146.974 239.437 146.974C241.082 146.974 241.782 146.709 242.576 146.274C242.746 148.014 243.37 150.472 244.24 151.947C244.24 152.041 244.316 152.041 244.505 152.382C244.24 152.646 243.975 153.006 243.975 153.081C242.841 154.67 241.007 155.615 239.078 155.539C237.868 155.539 236.903 154.915 235.845 154.405C235.504 154.216 235.334 154.046 235.069 153.611C234.975 153.441 234.634 152.741 234.464 152.382C235.069 151.077 234.805 150.283 235.334 146.085ZM231.136 134.022C231.136 132.622 231.231 131.053 231.496 129.748C232.536 125.361 238.038 122.223 243.181 125.456C245.015 126.59 246.585 128.425 247.114 130.618C247.379 131.658 247.473 133.757 247.473 134.022C247.379 134.022 242.671 134.022 231.136 134.022ZM226.768 154.405C227.468 154.31 228.168 154.216 228.867 154.046C231.496 153.611 230.437 153.875 232.97 153.441C233.405 154.481 234.01 155.445 234.975 155.974C236.374 156.768 237.508 157.374 239.172 157.374C241.536 157.374 243.881 156.145 245.28 154.14C245.45 153.875 245.639 153.611 245.715 153.516C246.244 153.516 245.809 153.611 248.078 153.781C249.288 153.875 250.177 153.97 251.217 154.31C261.428 159.037 265.02 161.647 266.93 172.765C263.527 173.635 260.123 174.505 256.625 175.299C256.72 173.465 256.814 171.631 256.984 169.532C256.984 169.002 256.625 168.643 256.19 168.567C255.755 168.567 255.32 168.908 255.226 169.343C254.98 173.03 254.791 176.339 254.791 177.927C254.621 181.936 254.545 186.133 254.621 190.426C254.621 192.43 254.715 194.529 254.791 196.628H221.625C220.396 191.39 220.831 185.169 221.455 179.761C221.796 176.263 221.966 174.334 222.495 169.267C222.59 168.832 222.23 168.397 221.701 168.303C221.19 168.208 220.831 168.567 220.756 169.078C220.396 171.801 220.132 174.599 219.867 177.303C216.217 176.698 212.19 176.074 209.146 175.564C209.221 174.94 209.316 174.334 209.486 173.729C211.925 161.741 219.262 155.445 226.768 154.405ZM266.325 196.628H258.024C257.419 194.359 256.89 192.354 256.549 190.331C256.549 186.398 256.549 182.465 256.72 178.702C259.688 178.267 262.657 177.662 265.531 176.963C265.455 183.6 265.455 190.161 266.325 196.628ZM270.428 206.422H252.616V198.386H270.428V206.422ZM248.154 198.386V206.422H228.962V198.386H248.154ZM219.621 194.434C219.697 195.134 219.867 195.928 220.056 196.628H219.262C219.356 195.928 219.526 195.134 219.621 194.434ZM206.423 208.162H268.859V230.02H206.423V208.162ZM135.1 211.149V204.229H197.347V211.149H196.817C196.137 211.149 204.154 211.149 135.1 211.149ZM150.378 195.833C151.947 195.323 153.611 195.758 153.952 196.798C154.311 197.932 153.347 199.256 151.777 199.861C150.208 200.39 148.544 200.031 148.204 198.897C147.769 197.762 148.714 196.457 150.378 195.833ZM177.001 195.833C178.571 195.323 180.235 195.758 180.594 196.798C180.934 197.932 179.97 199.256 178.4 199.861C176.831 200.39 175.167 200.031 174.827 198.897C174.392 197.762 175.432 196.457 177.001 195.833ZM181.104 230.02C184.168 228.451 185.208 223.553 183.298 220.055C182.598 218.656 181.293 217.522 179.8 217.181C179.195 217.011 178.495 217.011 177.871 217.087C177.19 217.087 176.491 217.181 175.791 217.351C169.419 219.015 167.831 227.846 174.392 230.02H158.414C163.217 227.581 162.347 218.391 157.109 217.181C155.975 216.916 154.141 217.087 153.006 217.351C146.615 219.015 145.046 227.846 151.607 230.02H136.499V213.948H195.872V230.02H181.104ZM177.436 225.142C176.831 225.577 175.602 224.953 174.562 223.742C173.522 222.513 173.163 221.114 173.768 220.679C174.297 220.244 175.602 220.849 176.661 222.078C177.625 223.289 177.966 224.688 177.436 225.142ZM177.436 219.015C178.06 218.58 179.27 219.185 180.329 220.415C181.369 221.644 181.728 223.043 181.104 223.478C180.594 223.913 179.27 223.289 178.23 222.078C177.266 220.849 176.926 219.45 177.436 219.015ZM115.359 231.779C279.164 231.779 269.199 231.779 269.729 231.779H360.697V244.012H115.359V231.779ZM165.127 301.192H140.432C136.84 301.192 133.606 298.847 132.566 295.519H173.087C171.953 298.923 168.719 301.192 165.127 301.192ZM139.903 324.638L142.002 302.95H162.347L164.427 324.638H139.903ZM185.737 288.353H294.347V327.607H185.737V288.353ZM201.885 279.258C202.679 279.428 203.208 278.558 202.755 277.934C202.15 277.064 201.809 276.024 201.809 274.966C203.208 275.495 205.723 276.195 207.217 275.93C209.656 275.59 211.15 273.302 210.45 271.127C210.885 271.297 211.415 271.203 211.85 270.957C212.285 270.692 212.549 270.333 212.795 269.898C213.684 268.669 214.554 267.005 214.119 265.53C217.352 265.606 220.756 267.535 221.796 271.467C220.056 273.131 219.092 275.155 218.921 277.159C216.823 276.459 214.459 276.63 212.36 277.688C208.786 279.428 206.347 283.361 206.177 286.33H193.679C192.809 284.155 193.338 282.226 194.548 281.092C195.437 280.298 196.572 279.863 197.612 279.598C199.54 279.163 200.75 279.088 201.885 279.258ZM287.975 281.262C288.94 280.922 291.038 282.832 290.339 286.519H269.729C269.729 284.231 268.764 282.132 266.93 280.657C269.369 278.123 273.038 278.634 276.006 280.487C276.706 280.922 277.595 280.222 277.33 279.428C276.8 277.859 275.931 276.024 275.931 274.455C275.836 271.127 278.2 269.293 280.998 269.993C284.213 270.862 287.37 275.325 286.841 280.222C286.746 280.997 287.37 281.432 287.975 281.262ZM260.482 279.333C258.894 279.863 257.76 280.827 256.89 282.056C255.415 278.993 252.957 276.195 249.648 275.59C249.742 274.701 249.912 273.755 250.253 272.867C250.952 271.127 252.446 268.858 254.356 268.764C255.415 268.669 256.36 269.293 257.06 269.993C259.329 272.091 260.558 276.459 260.482 279.333ZM248.778 277.235C249.383 277.235 250.083 277.424 250.782 277.764C252.957 278.823 254.791 281.092 256.114 284.59C256.455 285.46 257.589 285.29 257.759 284.42C258.024 283.191 258.894 282.056 260.123 281.357C263.186 279.598 267.63 281.886 267.894 286.33H242.311C242.916 283.796 244.145 281.357 245.639 279.258C246.585 278.029 247.379 277.235 248.778 277.235ZM234.105 281.792C231.93 282.661 230.437 282.056 228.962 281.962C225.369 281.792 225.899 284.855 224.859 286.424H208.087C208.352 284.155 210.45 280.827 213.324 279.428C215.329 278.464 217.787 278.464 219.526 279.428C220.132 279.787 220.831 279.258 220.831 278.558C220.661 276.459 221.625 274.19 223.535 272.602C226.504 270.068 231.496 270.333 234.805 273.926C236.034 275.325 237.868 278.029 238.643 279.598C236.544 280.128 235.674 281.092 234.105 281.792ZM342.281 301.192H317.491C313.899 301.192 310.666 298.847 309.626 295.519H350.146C349.012 298.923 345.854 301.192 342.281 301.192ZM317.057 324.638L319.137 302.95H339.482L341.581 324.638H317.057ZM346.478 301.986C349.522 300.587 351.527 297.788 352.056 294.725C352.151 294.214 351.716 293.685 351.186 293.685C305.957 293.761 308.226 293.42 307.716 294.025C307.527 294.214 307.451 294.46 307.527 294.725C308.056 297.523 309.72 299.887 311.989 301.286L309.72 324.544H300.72V287.483C300.72 286.954 300.379 286.594 299.85 286.594C299.68 286.594 291.738 286.594 291.908 286.594C292.513 282.491 290.415 279.863 288.41 279.523C288.505 273.131 283.267 266.759 277.765 268.499C277.84 267.459 277.235 267.1 276.195 267.194C274.267 267.459 272.527 269.028 272.092 270.957C272.527 268.329 272.867 265.7 273.302 263.072C273.397 262.373 273.038 261.938 272.527 262.373C271.203 263.602 270.334 265.266 270.069 267.1C270.258 264.66 270.428 262.202 270.334 259.839C270.334 259.234 270.258 258.534 269.993 258.005C269.369 256.605 267.724 256.171 266.401 258.364C264.926 260.803 264.321 263.772 264.831 266.665C264.226 265.095 262.392 261.503 260.993 260.727C259.858 260.103 258.648 260.538 258.459 261.938C258.383 262.467 258.554 262.996 258.648 263.431C259.329 266.4 260.652 269.198 262.298 271.732C261.352 271.033 260.293 270.428 259.159 269.993C256.285 265.965 252.257 265.965 249.553 269.993C248.419 271.657 247.719 273.566 247.643 275.495C247.209 275.59 246.774 275.665 246.414 275.854C244.24 276.894 242.217 280.733 241.271 282.926C240.836 280.487 239.702 278.388 238.114 276.024C236.204 273.056 234.54 270.862 231.306 269.633C231.231 269.104 230.966 268.329 230.531 268.159C230.172 267.969 229.737 268.234 229.472 268.499C229.661 267.969 230.002 266.4 229.832 265.871C229.737 265.606 229.567 265.436 229.302 265.436C229.037 265.436 228.773 265.7 228.697 265.965C228.962 265.001 230.267 260.727 229.397 260.368C229.132 260.274 228.432 260.633 228.338 261.238C228.527 260.198 228.697 259.064 228.432 258.005C227.997 256.341 226.428 255.906 225.369 257.74C224.67 258.969 224.424 260.463 224.67 261.862C224.424 261.597 224.329 261.238 224.159 260.898C223.724 260.028 222.835 260.103 222.495 261.162C222.23 262.127 222.401 263.072 222.93 263.961C222.665 263.696 222.401 263.431 222.06 263.261C221.096 262.732 220.321 263.337 220.396 264.396C220.396 264.831 220.661 265.266 220.926 265.7C220.396 265.436 219.356 265.001 218.827 265.001C214.554 262.637 209.392 263.602 206.423 267.005C206.177 267.364 205.818 267.799 205.553 268.329C201.28 268.234 198.651 272.961 200.315 277.235C198.311 277.235 194.813 278.293 193.244 279.787C191.674 281.262 190.88 283.72 191.769 286.424H184.697C184.168 286.424 183.808 286.783 183.808 287.294V324.468H171.423L169.23 301.816C172.293 300.416 174.297 297.618 174.827 294.555C174.921 294.025 174.467 293.515 173.957 293.515C128.728 293.59 130.997 293.25 130.467 293.855C130.297 294.025 130.203 294.29 130.297 294.555C130.827 297.353 132.472 299.717 134.76 301.116L132.472 324.374H118.423V250.044H359.128V323.315C358.353 323.768 357.653 324.203 356.954 324.638H348.388L346.478 301.986ZM378.339 318.417C376.335 318.512 374.33 318.172 372.402 317.548C372.402 315.978 372.496 314.484 372.402 313.01C374.501 313.01 376.505 312.915 378.604 312.82C378.679 314.673 378.604 316.583 378.339 318.417ZM401.218 309.511C400.084 309.511 399.649 309.417 399.195 307.318C395.981 292.891 393.617 278.123 392.123 263.526C392.048 262.373 390.478 262.562 390.384 263.526C389.079 279.428 386.11 295.349 383.142 310.741C379.209 310.986 374.671 311.175 370.908 311.175C369.774 303.82 369.868 296.313 369.963 288.958C370.227 269.104 370.662 248.569 371.173 227.94C376.675 231.079 384.182 231.684 390.554 232.119C401.729 232.913 411.769 230.984 413.263 230.115C413.698 273.226 413.963 290.962 413.339 309.077C409.33 309.417 405.756 309.682 401.218 309.511ZM412.734 310.986C412.904 312.915 413.093 314.919 413.263 317.207C411.524 316.942 409.425 317.207 407.761 317.548C407.666 315.619 407.326 313.879 406.967 311.346C408.895 311.175 410.824 311.081 412.734 310.986ZM436.577 329.101H421.64L419.276 311.251H438.846L436.577 329.101ZM440.68 308.282C441.38 308.282 430.716 308.282 417.102 308.282V305.919C434.573 305.919 423.474 305.919 440.68 305.919V308.282ZM444.084 286.954C443.025 287.294 441.815 287.559 440.945 288.523C439.716 289.922 440.056 291.756 440.321 293.515C440.756 296.389 440.246 299.452 437.977 301.192C436.747 302.08 435.783 302.251 434.743 304.255H433.949C434.214 303.385 434.214 302.421 434.119 301.646C434.044 300.946 433.779 300.322 433.609 299.717C432.909 297.713 432.815 297.183 433.949 294.555C434.573 292.985 435.254 291.227 435.348 289.223C435.443 287.653 435.008 286.159 434.308 285.195C435.878 284.59 436.918 285.119 438.147 284.325C438.922 283.796 439.281 283.021 439.622 282.132C440.851 279.258 442.779 276.554 445.918 276.554C451.685 276.554 450.097 284.855 444.084 286.954ZM422.339 279.598C424.778 276.8 423.738 272.602 425.308 269.993C425.913 268.934 427.312 268.064 428.447 268.593C430.716 269.558 430.205 275.495 429.77 277.934C429.505 279.523 428.711 281.186 429.77 283.021C430.81 284.855 432.644 284.685 433.344 287.218C434.044 289.317 433.174 291.662 432.38 293.685L432.285 293.95C431.075 297.013 431.075 297.958 431.945 300.322C432.38 301.721 432.739 302.78 432.115 304.255H428.882C428.711 303.555 424.778 298.753 425.213 288.693C425.308 286.254 425.402 285.46 425.743 283.096C425.837 282.661 425.478 282.226 424.967 282.132C424.533 282.056 424.079 282.397 424.003 282.926C423.039 290.527 423.039 297.523 426.972 304.349H424.967C423.133 302.156 420.77 301.721 418.841 300.492C417.707 299.811 416.496 298.488 416.667 297.183C416.761 296.313 418.236 293.761 415.532 290.792C415.532 288.353 415.532 285.989 415.532 283.531C417.461 281.962 420.505 281.697 422.339 279.598ZM420.24 182.805C424.079 189.291 428.541 199.426 423.133 204.683C420.429 207.292 415.872 207.821 412.129 207.462C409.425 207.216 399.725 205.987 397.55 205.363C397.285 202.489 397.115 199.596 397.115 196.798C401.918 196.533 406.796 195.758 411.524 194.359C412.034 194.188 412.299 193.564 412.034 193.054C409.065 188.157 406.021 181.501 405.057 176.169C404.962 175.734 404.527 175.374 403.998 175.469C403.563 175.564 403.223 175.998 403.317 176.528C403.563 178.173 403.998 179.761 404.527 181.236C404.792 187.457 405.662 192.09 405.586 193.924C403.658 194.264 401.918 194.529 399.989 194.793C400.783 185.699 401.483 175.034 401.124 163.935C407.591 168.208 412.204 169.172 420.24 182.805ZM397.626 161.912C396.68 162.8 395.792 164.275 395.092 164.71C393.787 165.504 392.388 165.845 391.083 165.504C390.554 165.41 390.043 164.975 389.609 164.54C389.419 164.37 388.985 163.84 388.644 163.405C389.419 162.176 389.949 160.872 390.119 158.603C391.254 157.638 393.787 154.046 394.657 152.817C395.357 153.081 396.056 153.27 396.756 153.346C396.68 156.315 396.926 159.208 397.626 161.912ZM399.12 131.923C401.823 132.887 403.563 135.421 402.863 139.713C402.523 142.152 401.389 144.346 399.819 146.52C399.29 146.35 398.514 146.18 397.72 145.915C394.222 144.78 389.684 142.247 386.451 139.978C389.155 134.721 393.617 129.918 399.12 131.923ZM385.146 158.073C383.671 157.279 383.917 153.611 382.442 151.342C382.272 151.077 382.007 150.812 381.837 150.548C380.268 148.619 381.138 148.884 382.083 145.31C384.182 147.484 386.64 148.978 389.344 150.548C390.478 151.172 391.613 151.777 392.918 152.306C392.312 153.27 389.779 156.768 388.909 157.468C387.774 158.338 385.846 158.414 385.146 158.073ZM366.635 187.797C368.393 186.133 369.528 184.129 370.662 182.2C371.872 180.102 373.196 177.927 374.501 175.828C372.667 184.394 371.267 192.959 370.473 201.619C368.639 202.395 367.07 202.054 365.065 201.355C363.156 200.731 361.227 199.956 359.393 199.161C355.384 197.422 351.186 195.134 347.424 192.789C348.747 190.426 349.882 187.797 350.657 185.264C354.855 187.098 359.563 188.327 364.46 188.667C365.235 188.667 365.859 188.592 366.635 187.797ZM105.243 172.935C111.71 185.358 119.727 191.9 120.692 192.959C121.127 193.394 121.826 193.224 122.091 192.789C122.431 192.26 125.665 188.402 126.1 187.892C127.688 186.058 129.503 184.299 130.127 183.429C130.902 182.371 131.791 180.726 132.037 178.873C132.226 177.227 132.226 175.639 132.925 174.334C133.436 173.276 134.4 172.5 135.894 169.967C135.97 169.872 136.064 169.778 136.064 169.702C136.064 170.666 135.44 172.065 136.14 173.276C136.329 173.729 136.84 173.9 137.274 173.635C139.373 172.671 140.773 170.931 142.342 169.437C142.266 169.702 142.172 169.967 142.002 170.137C141.831 170.572 141.907 171.007 142.342 171.271C142.777 171.536 143.212 171.366 143.476 171.007C143.836 170.572 144.1 170.137 144.441 169.872C144.1 170.836 143.476 171.801 142.871 172.576C142.342 173.2 142.871 174.164 143.647 173.975C143.306 174.599 143.836 175.374 144.535 175.299C144.176 175.734 143.741 176.074 143.306 176.433C139.203 179.402 135.8 183.259 133.266 187.703C130.467 194.094 126.799 199.521 122.696 205.193C121.297 207.216 120.351 207.916 117.647 207.462C115.359 207.122 113.185 206.158 111.086 204.758C110.746 201.79 109.781 198.821 107.512 196.892C109.876 194.094 110.576 189.896 109.252 185.793C105.073 173.105 105.319 174.599 103.05 169.778C103.939 170.402 104.544 171.706 105.243 172.935Z" fill="black"/>
</g>
<path d="M273.568 306.788H205.214C204.684 306.788 204.344 307.147 204.344 307.677C204.344 308.187 204.684 308.546 205.214 308.546H273.568C274.097 308.546 274.438 308.187 274.438 307.677C274.438 307.147 274.097 306.788 273.568 306.788Z" fill="black"/>
</svg>
