<svg width="20" height="20" viewBox="0 0 20 20" fill="none" xmlns="http://www.w3.org/2000/svg">
<path fill-rule="evenodd" clip-rule="evenodd" d="M10.0004 1.66675C13.222 1.66675 15.8337 4.27843 15.8337 7.50007C15.8337 8.56273 15.5504 9.55843 15.0531 10.4171C14.7216 10.9895 13.0373 13.9061 10.0004 19.1667C6.96332 13.9061 5.27908 10.9895 4.94762 10.4171C4.45035 9.55843 4.16699 8.56273 4.16699 7.50007C4.16699 4.27843 6.77867 1.66675 10.0003 1.66675M10.0004 5.00007C8.61965 5.00007 7.50035 6.11937 7.50035 7.50007C7.50035 8.88077 8.61965 10.0001 10.0004 10.0001C11.3811 10.0001 12.5004 8.88081 12.5004 7.50007C12.5004 6.11937 11.3811 5.00007 10.0004 5.00007Z" fill="#FF8126"/>
</svg>
