<svg width="58" height="58" viewBox="0 0 58 58" fill="none" xmlns="http://www.w3.org/2000/svg">
<path d="M51.7395 27.5741L30.4004 6.23492C29.5062 5.34075 28.2737 4.83325 26.9929 4.83325H9.66536C7.00703 4.83325 4.83203 7.00825 4.83203 9.66659V26.9941C4.83203 28.2749 5.33953 29.5074 6.25786 30.4016L27.597 51.7408C29.482 53.6258 32.5512 53.6258 34.4362 51.7408L51.7637 34.4133C53.6487 32.5283 53.6487 29.4833 51.7395 27.5741ZM15.707 19.3333C13.7012 19.3333 12.082 17.7141 12.082 15.7083C12.082 13.7024 13.7012 12.0833 15.707 12.0833C17.7129 12.0833 19.332 13.7024 19.332 15.7083C19.332 17.7141 17.7129 19.3333 15.707 19.3333Z" fill="#FF8126"/>
</svg>
