<svg width="72" height="72" viewBox="0 0 72 72" fill="none" xmlns="http://www.w3.org/2000/svg">
<path d="M29.9999 6C26.2456 6.00201 22.5441 6.88475 19.193 8.57727C15.8418 10.2698 12.9345 12.7249 10.7046 15.7452C8.47477 18.7656 6.98458 22.2669 6.35383 25.9679C5.72309 29.6688 5.96938 33.4661 7.07292 37.0545C8.17645 40.643 10.1064 43.9225 12.7078 46.6295C15.3091 49.3365 18.5092 51.3954 22.0509 52.6409C25.5926 53.8863 29.3771 54.2836 33.1002 53.8006C36.8233 53.3176 40.3812 51.9679 43.4879 49.86L58.3199 64.68C58.7318 65.1221 59.2286 65.4767 59.7806 65.7227C60.3326 65.9686 60.9285 66.1009 61.5327 66.1115C62.137 66.1222 62.7371 66.0111 63.2975 65.7847C63.8578 65.5584 64.3668 65.2215 64.7941 64.7942C65.2214 64.3669 65.5583 63.8579 65.7846 63.2976C66.0109 62.7373 66.1221 62.1371 66.1114 61.5329C66.1008 60.9286 65.9685 60.3328 65.7226 59.7808C65.4766 59.2288 65.122 58.732 64.6799 58.32L49.8599 43.488C52.3117 39.8795 53.7335 35.6709 53.9725 31.3148C54.2115 26.9587 53.2587 22.6199 51.2163 18.7648C49.174 14.9097 46.1196 11.6842 42.3813 9.4351C38.6431 7.18602 34.3625 5.99842 29.9999 6ZM14.9999 30C14.9999 26.0218 16.5802 22.2064 19.3933 19.3934C22.2063 16.5804 26.0216 15 29.9999 15C33.9781 15 37.7934 16.5804 40.6065 19.3934C43.4195 22.2064 44.9999 26.0218 44.9999 30C44.9999 33.9783 43.4195 37.7936 40.6065 40.6066C37.7934 43.4197 33.9781 45 29.9999 45C26.0216 45 22.2063 43.4197 19.3933 40.6066C16.5802 37.7936 14.9999 33.9783 14.9999 30Z" fill="white"/>
</svg>
