<svg width="67" height="67" viewBox="0 0 67 67" fill="none" xmlns="http://www.w3.org/2000/svg">
<g clip-path="url(#clip0_2519_4376)">
<path fill-rule="evenodd" clip-rule="evenodd" d="M19.5443 11.8645C17.5082 11.8645 15.5555 12.6733 14.1158 14.1131C12.676 15.5528 11.8672 17.5055 11.8672 19.5416V23.0312H13.9609C15.1735 23.0312 16.3601 23.3822 17.3775 24.0417C18.395 24.7013 19.1998 25.6413 19.6948 26.7482C20.1898 27.8551 20.3538 29.0816 20.1671 30.2796C19.9804 31.4777 19.4509 32.5961 18.6426 33.4999C19.4509 34.4037 19.9804 35.5221 20.1671 36.7202C20.3538 37.9183 20.1898 39.1448 19.6948 40.2517C19.1998 41.3586 18.395 42.2985 17.3775 42.9581C16.3601 43.6177 15.1735 43.9686 13.9609 43.9687H11.8672V47.4582C11.8672 49.4943 12.676 51.447 14.1158 52.8868C15.5555 54.3265 17.5082 55.1353 19.5443 55.1353H55.8359C57.872 55.1353 59.8247 54.3265 61.2645 52.8868C62.7042 51.447 63.513 49.4943 63.513 47.4582V19.5416C63.513 17.5055 62.7042 15.5528 61.2645 14.1131C59.8247 12.6733 57.872 11.8645 55.8359 11.8645H19.5443ZM26.2889 23.3829C25.8269 23.0822 25.2649 22.9758 24.7249 23.0869C24.1849 23.198 23.7105 23.5176 23.4047 23.9763C23.0988 24.435 22.9863 24.9958 23.0914 25.537C23.1966 26.0782 23.5109 26.5561 23.9663 26.8669L36.5288 35.2419C36.8727 35.4712 37.2768 35.5935 37.6901 35.5935C38.1034 35.5935 38.5075 35.4712 38.8514 35.2419L51.4139 26.8669C51.8693 26.5561 52.1836 26.0782 52.2888 25.537C52.3939 24.9958 52.2814 24.435 51.9756 23.9763C51.6697 23.5176 51.1953 23.198 50.6553 23.0869C50.1153 22.9758 49.5533 23.0822 49.0913 23.3829L37.6901 30.9846L26.2889 23.3829Z" fill="#FF8126"/>
<path fill-rule="evenodd" clip-rule="evenodd" d="M16.0544 37.6875C16.0544 38.2428 15.8338 38.7753 15.4411 39.168C15.0485 39.5607 14.5159 39.7812 13.9606 39.7812H8.37728C7.82198 39.7812 7.28943 39.5607 6.89677 39.168C6.50412 38.7753 6.28353 38.2428 6.28353 37.6875C6.28353 37.1322 6.50412 36.5997 6.89677 36.207C7.28943 35.8143 7.82198 35.5938 8.37728 35.5938H13.9606C14.5159 35.5938 15.0485 35.8143 15.4411 36.207C15.8338 36.5997 16.0544 37.1322 16.0544 37.6875ZM16.0544 29.3125C16.0544 29.8678 15.8338 30.4003 15.4411 30.793C15.0485 31.1857 14.5159 31.4062 13.9606 31.4062H2.79395C2.23865 31.4062 1.70609 31.1857 1.31344 30.793C0.920786 30.4003 0.700195 29.8678 0.700195 29.3125C0.700195 28.7572 0.920786 28.2247 1.31344 27.832C1.70609 27.4393 2.23865 27.2188 2.79395 27.2188H13.9606C14.5159 27.2188 15.0485 27.4393 15.4411 27.832C15.8338 28.2247 16.0544 28.7572 16.0544 29.3125Z" fill="#FF8126"/>
</g>
<defs>
<clipPath id="clip0_2519_4376">
<rect width="67" height="67" fill="white" transform="translate(0.00195312)"/>
</clipPath>
</defs>
</svg>
